 <svg width="360" height="160" viewBox="0 0 360 160" fill="none" xmlns="http://www.w3.org/2000/svg"><g clip-path="url(#clip0)"><g clip-path="url(#clip1)"><path fill="#565656" d="M-110-50h580v240h-580z"/><mask id="a" style="mask-type:alpha" maskUnits="userSpaceOnUse" x="-110" y="-50" width="580" height="240"><path fill="#C4C4C4" d="M-110-50h580v240h-580z"/></mask><g mask="url(#a)"><path d="M-110-50h580v240h-580V-50z" fill="#6D6D6D"/><g clip-path="url(#clip2)"><path d="M251.83 142.675H50.554a3.907 3.907 0 0 1-3.92-3.904V30.904A3.907 3.907 0 0 1 50.554 27H251.83a3.908 3.908 0 0 1 3.921 3.904V138.77a3.908 3.908 0 0 1-3.921 3.904z" fill="#565656"/><path d="M255.764 38.968H46.647v92.538h209.117V38.968z" fill="url(#paint0_linear)"/><path d="M255.764 38.968H46.647v92.538h209.117V38.968z" fill="url(#paint1_linear)" fill-opacity=".7"/><path d="M165.713 142.675h-29.041v11.569h29.041v-11.569z" fill="url(#paint2_linear)"/><path d="M180.246 160.413h-58.095v-1.874a3.907 3.907 0 0 1 3.921-3.904h50.24a3.907 3.907 0 0 1 3.921 3.904v1.874h.013z" fill="#3F3F3F"/><path d="M184.952 85.677a34.222 34.222 0 0 1-1.516 9.825 33.915 33.915 0 0 1-32.4 23.788c-8.13 0-16.181-2.902-22.467-8.485l-6.522 5.128c-.85.598-1.921.754-2.836.299-.928-.456-1.543-1.379-1.543-2.368l-.3-19.625c0-.767.379-1.535.993-2.069a2.833 2.833 0 0 1 2.3-.533l7.829 1.874 11.279 2.706a2.646 2.646 0 0 1 1.987 1.992 2.669 2.669 0 0 1-.915 2.667l-4.757 3.826a23.901 23.901 0 0 0 8.508 4.177 24.356 24.356 0 0 0 16.573-1.431 23.748 23.748 0 0 0 8.051-6.025c3.777-4.32 5.986-9.93 5.986-15.825 0-.91.771-1.522 1.764-1.522h6.143c.993 0 1.764.612 1.843 1.6z" fill="url(#paint3_linear)"/><path d="M185.331 75.67c0 .767-.379 1.535-.994 2.068-.692.534-1.542.69-2.3.534l-19.108-4.58c-.993-.313-1.765-1.068-1.987-1.992a2.67 2.67 0 0 1 .915-2.668l4.522-3.513a24.216 24.216 0 0 0-14.769-5.44 24.096 24.096 0 0 0-10.612 2.16c-8.679 3.891-14.351 12.597-14.272 22.15.078.988-.693 1.756-1.608 1.899h-6.365c-1.006-.143-1.699-.989-1.699-1.9 0-18.713 15.265-33.99 33.981-33.99 2.837.025 5.607.377 8.287 1.053a33.19 33.19 0 0 1 14.651 7.952l6.835-5.336c.837-.612 1.909-.768 2.837-.312.914.455 1.529 1.38 1.529 2.368l.157 19.546z" fill="url(#paint4_linear)"/><g filter="url(#filter0_dd)"><path d="M63.785 97.532H34.457c-.896 0-1.629.73-1.629 1.622v59.259a1.63 1.63 0 0 0 1.63 1.622h29.325c.896 0 1.63-.73 1.63-1.622V99.154a1.62 1.62 0 0 0-1.63-1.622z" fill="#565656"/><path d="M65.414 103.404H32.829v50.758h32.585v-50.758z" fill="#54BBFF"/><path d="M65.414 105.481v48.665H32.829v-17.195c9.58-4.85 18.41-9.376 22.63-11.68 4.09-2.222-7.869.163-22.63 3.245V116.95a1862.876 1862.876 0 0 1 32.585-11.469z" fill="url(#paint5_linear)" fill-opacity=".7"/></g></g><g filter="url(#filter1_dd)"><path d="M325.734 160.446H215.967c-1.588 0-2.888-1.442-2.888-3.205v-2.309c0-.881.65-1.602 1.444-1.602h112.655c.794 0 1.444.721 1.444 1.602v2.309c0 1.779-1.3 3.205-2.888 3.205z" fill="url(#paint6_linear)"/><path d="M324.131 153.233H217.585V93.928c0-2.661 1.936-4.809 4.333-4.809h97.88c2.397 0 4.333 2.148 4.333 4.809v59.305z" fill="#565656"/><path d="M324.116 95.61H217.571v51.132h106.545V95.611z" fill="#54BBFF"/><path d="M324.116 100.275v24.091c-4.044 8.784-9.099 17.279-12.522 22.376h-94.023v-17.359c1.271-3.542 3.322-7.549 6.441-12.053 5.965-8.608 17.664-16.734 28.525-21.72h24.033c-21.029 39.928 10.399 27.33 47.546 4.665z" fill="url(#paint7_linear)" fill-opacity=".7"/><path d="M316.923 95.61c-31.211 16.19-31.211 11.59-29.246 0h29.246z" fill="url(#paint8_linear)" fill-opacity=".7"/></g></g></g></g><defs><filter id="filter0_dd" x="4.029" y="81.532" width="90.184" height="120.103" filterUnits="userSpaceOnUse" color-interpolation-filters="sRGB"><feFlood flood-opacity="0" result="BackgroundImageFix"/><feColorMatrix in="SourceAlpha" values="0 0 0 0 0 0 0 0 0 0 0 0 0 0 0 0 0 0 127 0" result="hardAlpha"/><feOffset/><feGaussianBlur stdDeviation="4.6"/><feColorMatrix values="0 0 0 0 0 0 0 0 0 0 0 0 0 0 0 0 0 0 0.11 0"/><feBlend in2="BackgroundImageFix" result="effect1_dropShadow"/><feColorMatrix in="SourceAlpha" values="0 0 0 0 0 0 0 0 0 0 0 0 0 0 0 0 0 0 127 0" result="hardAlpha"/><feOffset dy="12.8"/><feGaussianBlur stdDeviation="14.4"/><feColorMatrix values="0 0 0 0 0 0 0 0 0 0 0 0 0 0 0 0 0 0 0.13 0"/><feBlend in2="effect1_dropShadow" result="effect2_dropShadow"/><feBlend in="SourceGraphic" in2="effect2_dropShadow" result="shape"/></filter><filter id="filter1_dd" x="184.279" y="73.119" width="173.143" height="128.927" filterUnits="userSpaceOnUse" color-interpolation-filters="sRGB"><feFlood flood-opacity="0" result="BackgroundImageFix"/><feColorMatrix in="SourceAlpha" values="0 0 0 0 0 0 0 0 0 0 0 0 0 0 0 0 0 0 127 0" result="hardAlpha"/><feOffset/><feGaussianBlur stdDeviation="4.6"/><feColorMatrix values="0 0 0 0 0 0 0 0 0 0 0 0 0 0 0 0 0 0 0.11 0"/><feBlend in2="BackgroundImageFix" result="effect1_dropShadow"/><feColorMatrix in="SourceAlpha" values="0 0 0 0 0 0 0 0 0 0 0 0 0 0 0 0 0 0 127 0" result="hardAlpha"/><feOffset dy="12.8"/><feGaussianBlur stdDeviation="14.4"/><feColorMatrix values="0 0 0 0 0 0 0 0 0 0 0 0 0 0 0 0 0 0 0.13 0"/><feBlend in2="effect1_dropShadow" result="effect2_dropShadow"/><feBlend in="SourceGraphic" in2="effect2_dropShadow" result="shape"/></filter><linearGradient id="paint0_linear" x1="56.382" y1="192.337" x2="265.159" y2="-34.801" gradientUnits="userSpaceOnUse"><stop stop-color="#54BBFF"/><stop offset=".521" stop-color="#8CCFFF"/></linearGradient><linearGradient id="paint1_linear" x1="61.247" y1="37.036" x2="101.338" y2="155.236" gradientUnits="userSpaceOnUse"><stop stop-color="#BFD1F4"/><stop offset=".438" stop-color="#B4DFFE"/><stop offset="1" stop-color="#D1F2EC"/></linearGradient><linearGradient id="paint2_linear" x1="151.198" y1="155.819" x2="151.198" y2="137.697" gradientUnits="userSpaceOnUse"><stop stop-color="#565656"/><stop offset="1" stop-color="#3B3B3B"/></linearGradient><linearGradient id="paint3_linear" x1="112.299" y1="120.346" x2="195.203" y2="83.906" gradientUnits="userSpaceOnUse"><stop stop-color="#1F65F1"/><stop offset="1" stop-color="#0AFFB6"/></linearGradient><linearGradient id="paint4_linear" x1="111.933" y1="87.365" x2="195.925" y2="50.77" gradientUnits="userSpaceOnUse"><stop stop-color="#1F65F1"/><stop offset="1" stop-color="#0AFFB6"/></linearGradient><linearGradient id="paint5_linear" x1="30" y1="173" x2="40.55" y2="95.837" gradientUnits="userSpaceOnUse"><stop stop-color="#BFD1F4"/><stop offset=".438" stop-color="#A0D1F5"/><stop offset="1" stop-color="#E9FFFB"/></linearGradient><linearGradient id="paint6_linear" x1="270.851" y1="149.571" x2="270.851" y2="160.446" gradientUnits="userSpaceOnUse"><stop stop-color="#6D6D6D"/><stop offset=".578" stop-color="#3B3B3B"/></linearGradient><linearGradient id="paint7_linear" x1="222.306" y1="90.903" x2="249.787" y2="167.852" gradientUnits="userSpaceOnUse"><stop stop-color="#BFD1F4"/><stop offset=".438" stop-color="#B4DFFE"/><stop offset="1" stop-color="#D1F2EC"/></linearGradient><linearGradient id="paint8_linear" x1="288.299" y1="94.645" x2="292.64" y2="111.309" gradientUnits="userSpaceOnUse"><stop stop-color="#BFD1F4"/><stop offset=".438" stop-color="#B4DFFE"/><stop offset="1" stop-color="#D1F2EC"/></linearGradient><clipPath id="clip0"><path fill="#fff" d="M0 0h360v160H0z"/></clipPath><clipPath id="clip1"><path d="M0-16a4 4 0 0 1 4-4h352a4 4 0 0 1 4 4v176H0V-16z" fill="#fff"/></clipPath><clipPath id="clip2"><path fill="#fff" transform="translate(29.029 27)" d="M0 0h286.948v133.022H0z"/></clipPath></defs></svg>